<svg id="Layer_1" data-name="Layer 1" xmlns="http://www.w3.org/2000/svg" viewBox="0 0 158.43 91.34"><defs><style>.cls-1,.cls-2,.cls-3,.cls-4,.cls-5{fill:none;stroke:#f7f7f6;stroke-miterlimit:10;}.cls-1{stroke-width:4px;}.cls-2{stroke-width:3px;}.cls-3{stroke-width:2px;}.cls-5{stroke-width:0.75px;}.cls-6{fill:#f8f7f7;}</style></defs><title>logo</title><path class="cls-1" d="M78.34,56.8a24.16,24.16,0,1,1,0-48.31"/><path class="cls-1" d="M78.34,12.48a20.17,20.17,0,1,1,0,40.33"/><path class="cls-2" d="M75.91,13.93A17.75,17.75,0,0,0,59.19,32.65"/><path class="cls-3" d="M94.76,32.65a16.42,16.42,0,0,1-32.84,0"/><path class="cls-3" d="M78.34,20.8a11.85,11.85,0,0,1,0,23.69"/><path class="cls-4" d="M78.34,41a8.4,8.4,0,1,1,0-16.79"/><path class="cls-5" d="M78.72,38.87a6.23,6.23,0,0,0,0-12.45"/><rect class="cls-3" x="46.67" y="2.99" width="59.5" height="59.5"/><path class="cls-6" d="M23.83,72.64a16.81,16.81,0,0,1,1.72.09,7.52,7.52,0,0,1,1.7.4,5.74,5.74,0,0,1,1.52.82A4.91,4.91,0,0,1,30,75.37a7.56,7.56,0,0,1,.84,2.17,13.66,13.66,0,0,1,.3,3.06v7.75H26.8V80.6c0-.49,0-1-.06-1.43a3.4,3.4,0,0,0-.36-1.23,2.19,2.19,0,0,0-.88-.85,3.33,3.33,0,0,0-1.63-.33h-.63a5,5,0,0,0-1.8.31A3.62,3.62,0,0,0,20,78a4,4,0,0,0-.91,1.52,6.17,6.17,0,0,0-.33,2.12v6.73H14.47V80.6c0-.49,0-1-.06-1.43a3.4,3.4,0,0,0-.36-1.23,2.15,2.15,0,0,0-.89-.85,3.43,3.43,0,0,0-1.64-.33H10.46a4.35,4.35,0,0,0-1.74.33,3.59,3.59,0,0,0-1.26.85,3.73,3.73,0,0,0-.76,1.23,4.11,4.11,0,0,0-.26,1.43v7.75H2.34V72.85h4.1v1.87a6.8,6.8,0,0,1,1.21-1,6.79,6.79,0,0,1,2.6-1,6.69,6.69,0,0,1,1.23-.11,14.41,14.41,0,0,1,1.84.11,6.82,6.82,0,0,1,1.79.45,5.55,5.55,0,0,1,1.59,1,5.28,5.28,0,0,1,1.22,1.68,6.33,6.33,0,0,1,1.3-1.53,7.45,7.45,0,0,1,1.51-1,7,7,0,0,1,1.6-.54A7.45,7.45,0,0,1,23.83,72.64Z"/><path class="cls-6" d="M44.21,72.85c.46,0,1,0,1.57.08a9.07,9.07,0,0,1,1.8.35,7.9,7.9,0,0,1,1.77.78,5.41,5.41,0,0,1,1.55,1.37A6.92,6.92,0,0,1,52,77.55a11.55,11.55,0,0,1,0,6.1,6.86,6.86,0,0,1-1.08,2.13,5.57,5.57,0,0,1-1.55,1.37,7.9,7.9,0,0,1-1.77.78,9.07,9.07,0,0,1-1.8.35c-.58,0-1.11.07-1.57.07H40.85c-.47,0-1,0-1.58-.07a9.12,9.12,0,0,1-1.79-.35,8,8,0,0,1-1.78-.78,5.53,5.53,0,0,1-1.54-1.37,6.88,6.88,0,0,1-1.09-2.13,11.55,11.55,0,0,1,0-6.1,6.93,6.93,0,0,1,1.09-2.12,5.38,5.38,0,0,1,1.54-1.37,8,8,0,0,1,1.78-.78,9.12,9.12,0,0,1,1.79-.35c.59-.05,1.11-.08,1.58-.08Zm1.13,11.62a2.56,2.56,0,0,0,1.36-.33,2.24,2.24,0,0,0,.83-.87A3.88,3.88,0,0,0,48,82a8.48,8.48,0,0,0,.12-1.44A8.36,8.36,0,0,0,48,79.17a3.88,3.88,0,0,0-.42-1.23,2.33,2.33,0,0,0-.83-.85,2.56,2.56,0,0,0-1.36-.33H39.72a2.54,2.54,0,0,0-1.36.33,2.44,2.44,0,0,0-.84.85,3.88,3.88,0,0,0-.42,1.23A8.36,8.36,0,0,0,37,80.6,8.48,8.48,0,0,0,37.1,82a3.88,3.88,0,0,0,.42,1.23,2.34,2.34,0,0,0,.84.87,2.54,2.54,0,0,0,1.36.33Z"/><path class="cls-6" d="M67.74,72.85h4.6l-7.81,15.5h-5l-7.82-15.5h4.6l5.71,12.09Z"/><path class="cls-6" d="M84.63,72.85a8.05,8.05,0,0,1,2.7.45,6.16,6.16,0,0,1,2.24,1.37A6.42,6.42,0,0,1,91.09,77a9.13,9.13,0,0,1,.55,3.34c0,.25,0,.47,0,.67s0,.37,0,.53,0,.35-.05.5H76.36a5.39,5.39,0,0,0,.29,1,2.42,2.42,0,0,0,.49.77,2,2,0,0,0,.76.51,2.68,2.68,0,0,0,1.06.19h5.65a4,4,0,0,0,1.78-.3,1.74,1.74,0,0,0,.82-1h4.36a5.23,5.23,0,0,1-.67,2,5.59,5.59,0,0,1-1.18,1.4,6.47,6.47,0,0,1-1.5.93,10.18,10.18,0,0,1-1.66.57,12.44,12.44,0,0,1-1.64.27q-.8.06-1.44.06H80.09c-.46,0-1,0-1.57-.07a8.85,8.85,0,0,1-1.79-.35A7.7,7.7,0,0,1,75,87.15a5.67,5.67,0,0,1-1.54-1.37,6.68,6.68,0,0,1-1.1-2.13,11.55,11.55,0,0,1,0-6.1,6.73,6.73,0,0,1,1.1-2.12A5.51,5.51,0,0,1,75,74.06a7.7,7.7,0,0,1,1.77-.78,8.85,8.85,0,0,1,1.79-.35c.58-.05,1.11-.08,1.57-.08ZM79,76.76A2.68,2.68,0,0,0,77.9,77a2,2,0,0,0-.76.51,2.42,2.42,0,0,0-.49.77,5.39,5.39,0,0,0-.29,1H87.21a2.35,2.35,0,0,0-.69-1.88,3,3,0,0,0-1.91-.55Z"/><path class="cls-6" d="M113.13,80.6a10,10,0,0,1-.41,3.05,6.68,6.68,0,0,1-1.1,2.13,5.67,5.67,0,0,1-1.54,1.37,7.7,7.7,0,0,1-1.77.78,9,9,0,0,1-1.79.35c-.59,0-1.11.07-1.57.07H93.38V72.85H105c.46,0,1,0,1.57.08a9,9,0,0,1,1.79.35,7.7,7.7,0,0,1,1.77.78,5.51,5.51,0,0,1,1.54,1.37,6.73,6.73,0,0,1,1.1,2.12A10.14,10.14,0,0,1,113.13,80.6Zm-7.06,3.87a2.5,2.5,0,0,0,1.35-.33,2.32,2.32,0,0,0,.83-.87,3.88,3.88,0,0,0,.42-1.23,8.48,8.48,0,0,0,.12-1.44,8.36,8.36,0,0,0-.12-1.43,3.88,3.88,0,0,0-.42-1.23,2.41,2.41,0,0,0-.83-.85,2.5,2.5,0,0,0-1.35-.33H97.5v7.71Z"/><path class="cls-6" d="M134.6,77.26a4.61,4.61,0,0,1-.37,1.78A4.21,4.21,0,0,1,133,80.6a4.27,4.27,0,0,1,1.2,1.58A4.6,4.6,0,0,1,134.6,84a4.54,4.54,0,0,1-.42,2,3.58,3.58,0,0,1-1.1,1.35,4.45,4.45,0,0,1-1.63.76,7.77,7.77,0,0,1-1.95.24H114.87V72.85H129.5a7.77,7.77,0,0,1,1.95.24,4.8,4.8,0,0,1,1.63.76,3.7,3.7,0,0,1,1.1,1.36A4.54,4.54,0,0,1,134.6,77.26Zm-5.54,1.93a1.63,1.63,0,0,0,1.06-.31,1.32,1.32,0,0,0,0-1.85,1.44,1.44,0,0,0-1-.33H119v2.49ZM119,82v2.47h10.18a1.49,1.49,0,0,0,1-.32,1.17,1.17,0,0,0,.38-.92,1.12,1.12,0,0,0-.38-.93,1.69,1.69,0,0,0-1.06-.3Z"/><path class="cls-6" d="M152,72.85h4.13V80.6a10,10,0,0,1-.41,3.05,6.89,6.89,0,0,1-1.1,2.13A5.82,5.82,0,0,1,153,87.15a7.7,7.7,0,0,1-1.77.78,9.12,9.12,0,0,1-1.79.35c-.59,0-1.11.07-1.58.07h-5a9.66,9.66,0,0,1-2.49-.3,6.56,6.56,0,0,1-2-.87,4.82,4.82,0,0,1-1.4-1.37,4.61,4.61,0,0,1-.72-1.8l4.13-1.15a1.74,1.74,0,0,0,.43.8,2.39,2.39,0,0,0,.79.56,3.6,3.6,0,0,0,1.45.25h6.12a3,3,0,0,0,1.2-.22,2,2,0,0,0,.8-.61,2.94,2.94,0,0,0,.46-.92,5.61,5.61,0,0,0,.23-1.14,8.2,8.2,0,0,1-2.15.55,17.09,17.09,0,0,1-1.89.12h-3.38c-.46,0-1,0-1.58-.07a9.12,9.12,0,0,1-1.79-.35,8.1,8.1,0,0,1-1.77-.78,5.82,5.82,0,0,1-1.54-1.37,6.67,6.67,0,0,1-1.09-2.13,9.72,9.72,0,0,1-.42-3V72.85h4.13v1.87a7.66,7.66,0,0,0,.12,1.39,3.42,3.42,0,0,0,.42,1.15,2.18,2.18,0,0,0,.83.79,2.63,2.63,0,0,0,1.34.3h6.08a2.7,2.7,0,0,0,1.35-.3,2.22,2.22,0,0,0,.82-.79,3.42,3.42,0,0,0,.42-1.15,7.66,7.66,0,0,0,.12-1.39Z"/></svg>